<?xml version="1.0" standalone="no"?>
<!DOCTYPE svg PUBLIC "-//W3C//DTD SVG 20010904//EN"
 "http://www.w3.org/TR/2001/REC-SVG-20010904/DTD/svg10.dtd">
<svg version="1.0" xmlns="http://www.w3.org/2000/svg"
 width="1024.000000pt" height="1024.000000pt" viewBox="0 0 1024.000000 1024.000000"
 preserveAspectRatio="xMidYMid meet">
<metadata>
Created by potrace 1.15, written by Peter Selinger 2001-2017
</metadata>
<g transform="translate(0.000000,1024.000000) scale(0.100000,-0.100000)"
fill="#000000" stroke="none">
<path d="M4248 8835 c-180 -34 -331 -114 -461 -242 -120 -119 -189 -240 -234
-413 -24 -89 -26 -114 -30 -422 l-6 -328 -747 0 c-717 0 -750 -1 -826 -20
-214 -55 -374 -183 -469 -374 -77 -157 -75 -129 -75 -948 l0 -728 325 0 c364
0 418 -6 563 -65 225 -91 404 -260 508 -478 110 -232 117 -521 19 -763 -95
-237 -297 -435 -536 -530 -138 -54 -229 -64 -568 -64 l-311 0 0 -723 c0 -691
1 -727 20 -803 53 -210 191 -378 385 -470 149 -71 111 -68 923 -72 l732 -3 0
268 c0 376 17 503 86 660 61 139 192 297 321 389 307 220 740 231 1060 27 147
-94 265 -227 343 -386 86 -177 93 -218 97 -614 l5 -343 691 0 c399 0 721 5
760 10 245 36 461 202 555 427 58 138 56 104 60 930 l3 761 337 4 c309 4 344
6 417 26 241 66 445 229 554 441 74 145 92 218 98 396 4 137 2 159 -21 249
-45 174 -117 299 -242 421 -122 119 -297 208 -464 234 -36 6 -206 11 -377 11
l-313 0 0 763 c0 818 1 809 -51 932 -65 152 -191 286 -341 359 -155 77 -136
76 -980 76 l-746 0 -5 333 c-5 380 -12 429 -92 593 -111 229 -320 400 -570
465 -106 27 -292 34 -397 14z"/>
</g>
</svg>
